<svg width="45" height="45" viewBox="0 0 45 45" fill="none" xmlns="http://www.w3.org/2000/svg">
<g clip-path="url(#clip0_12_231)">
<g filter="url(#filter0_d_12_231)">
<path d="M22.5 45C34.9264 45 45 34.9264 45 22.5C45 10.0736 34.9264 0 22.5 0C10.0736 0 0 10.0736 0 22.5C0 34.9264 10.0736 45 22.5 45Z" fill="#3B5998"/>
</g>
<path d="M28.1565 23.3808H24.1416V38.0893H18.0588V23.3808H15.1658V18.2116H18.0588V14.8666C18.0588 12.4745 19.1951 8.72879 24.1958 8.72879L28.7015 8.74764V13.7652H25.4323C24.8961 13.7652 24.142 14.0331 24.142 15.1742V18.2164H28.6879L28.1565 23.3808Z" fill="white"/>
</g>
<defs>
<filter id="filter0_d_12_231" x="-4" y="0" width="53" height="53" filterUnits="userSpaceOnUse" color-interpolation-filters="sRGB">
<feFlood flood-opacity="0" result="BackgroundImageFix"/>
<feColorMatrix in="SourceAlpha" type="matrix" values="0 0 0 0 0 0 0 0 0 0 0 0 0 0 0 0 0 0 127 0" result="hardAlpha"/>
<feOffset dy="4"/>
<feGaussianBlur stdDeviation="2"/>
<feComposite in2="hardAlpha" operator="out"/>
<feColorMatrix type="matrix" values="0 0 0 0 0 0 0 0 0 0 0 0 0 0 0 0 0 0 0.25 0"/>
<feBlend mode="normal" in2="BackgroundImageFix" result="effect1_dropShadow_12_231"/>
<feBlend mode="normal" in="SourceGraphic" in2="effect1_dropShadow_12_231" result="shape"/>
</filter>
<clipPath id="clip0_12_231">
<rect width="45" height="45" fill="white"/>
</clipPath>
</defs>
</svg>
