<svg width="26" height="25" viewBox="0 0 26 25" fill="none" xmlns="http://www.w3.org/2000/svg">
<g clip-path="url(#clip0_11_403)">
<path d="M1.76897 1.70104C-0.241455 3.74166 0.170011 5.90937 0.170011 12.4948C0.170011 17.9635 -0.80642 23.4458 4.30385 24.7365C5.89961 25.1375 20.0387 25.1375 21.6323 24.7344C23.76 24.1979 25.4911 22.5115 25.7278 19.5708C25.7608 19.1604 25.7608 5.83646 25.7267 5.41771C25.4751 2.28541 23.502 0.480206 20.9021 0.114581C20.3062 0.0302058 20.1868 0.0052058 17.1296 -2.53627e-06C6.28549 0.0052058 3.90838 -0.466669 1.76897 1.70104V1.70104Z" fill="url(#paint0_linear_11_403)"/>
<path d="M12.9595 3.2698C9.08897 3.2698 5.4135 2.93334 4.00962 6.45417C3.42973 7.90834 3.51394 9.79688 3.51394 12.5011C3.51394 14.874 3.43612 17.1042 4.00962 18.5469C5.4103 22.0698 9.11562 21.7323 12.9574 21.7323C16.6638 21.7323 20.4853 22.1094 21.9062 18.5469C22.4872 17.0781 22.4019 15.2177 22.4019 12.5011C22.4019 8.8948 22.6055 6.56667 20.8157 4.81876C19.0036 3.04792 16.5529 3.2698 12.9553 3.2698H12.9595ZM12.1131 4.93334C20.1868 4.92084 21.2144 4.04376 20.6473 16.2281C20.4458 20.5375 17.088 20.0646 12.9606 20.0646C5.43482 20.0646 5.21843 19.8542 5.21843 12.4969C5.21843 5.05417 5.81537 4.93751 12.1131 4.93126V4.93334ZM18.0016 6.46563C17.3758 6.46563 16.8684 6.96147 16.8684 7.57292C16.8684 8.18438 17.3758 8.68022 18.0016 8.68022C18.6273 8.68022 19.1347 8.18438 19.1347 7.57292C19.1347 6.96147 18.6273 6.46563 18.0016 6.46563V6.46563ZM12.9595 7.76042C10.2807 7.76042 8.10935 9.88334 8.10935 12.5011C8.10935 15.1188 10.2807 17.2406 12.9595 17.2406C15.6383 17.2406 17.8086 15.1188 17.8086 12.5011C17.8086 9.88334 15.6383 7.76042 12.9595 7.76042V7.76042ZM12.9595 9.42397C17.1221 9.42397 17.1275 15.5781 12.9595 15.5781C8.79796 15.5781 8.79157 9.42397 12.9595 9.42397Z" fill="white"/>
</g>
<defs>
<linearGradient id="paint0_linear_11_403" x1="1.81803" y1="23.4032" x2="25.1238" y2="2.76168" gradientUnits="userSpaceOnUse">
<stop stop-color="#8E7F42"/>
<stop offset="0.5" stop-color="#FF543E"/>
<stop offset="1" stop-color="#C837AB"/>
</linearGradient>
<clipPath id="clip0_11_403">
<rect width="25.5833" height="25" fill="white" transform="translate(0.169983)"/>
</clipPath>
</defs>
</svg>
