<svg width="26" height="25" viewBox="0 0 26 25" fill="none" xmlns="http://www.w3.org/2000/svg">
<g clip-path="url(#clip0_8_49)">
<path d="M12.8283 25C19.8929 25 25.6198 19.4037 25.6198 12.5002C25.6198 5.59679 19.8929 0.00044632 12.8283 0.00044632C5.76382 0.00044632 0.0368958 5.59679 0.0368958 12.5002C0.0368958 19.4037 5.76382 25 12.8283 25Z" fill="#CB2027"/>
<path d="M13.8608 16.7387C12.8938 16.6656 12.4875 16.197 11.7291 15.7472C11.3123 17.8842 10.8029 19.9328 9.29405 21.0031C8.82775 17.773 9.97765 15.347 10.5117 12.7718C9.60142 11.2745 10.6211 8.26062 12.541 9.00328C14.904 9.9164 10.4953 14.5709 13.4549 15.1522C16.5448 15.7592 17.8062 9.91306 15.89 8.01151C13.1214 5.26614 7.83108 7.94912 8.48162 11.8792C8.64009 12.84 9.65615 13.1317 8.88749 14.4575C7.11555 14.074 6.587 12.7083 6.65495 10.8877C6.76463 7.90745 9.39529 5.82074 12.0339 5.53196C15.371 5.16698 18.5031 6.7294 18.9354 9.79675C19.4218 13.2587 17.4289 17.0079 13.8608 16.7387Z" fill="#F1F2F2"/>
</g>
<defs>
<clipPath id="clip0_8_49">
<rect width="25.5833" height="25" fill="white" transform="translate(0.0366516)"/>
</clipPath>
</defs>
</svg>
