<svg width="26" height="25" viewBox="0 0 26 25" fill="none" xmlns="http://www.w3.org/2000/svg">
<g clip-path="url(#clip0_8_29)">
<path d="M12.895 25C19.9596 25 25.6867 19.4036 25.6867 12.5C25.6867 5.59644 19.9596 0 12.895 0C5.83036 0 0.103333 5.59644 0.103333 12.5C0.103333 19.4036 5.83036 25 12.895 25Z" fill="#4D76A1"/>
<path fill-rule="evenodd" clip-rule="evenodd" d="M12.4118 17.9824H13.4158C13.4158 17.9824 13.7191 17.9498 13.8739 17.7867C14.0165 17.637 14.0119 17.3558 14.0119 17.3558C14.0119 17.3558 13.9923 16.0393 14.6175 15.8455C15.2339 15.6545 16.0253 17.1178 16.8642 17.6804C17.4986 18.1063 17.9806 18.0129 17.9806 18.0129L20.2237 17.9824C20.2237 17.9824 21.3971 17.9117 20.8407 17.0102C20.7951 16.9364 20.5167 16.3433 19.173 15.1244C17.7665 13.8488 17.9549 14.0551 19.6491 11.8485C20.6809 10.5046 21.0934 9.68416 20.9646 9.33277C20.8417 8.99809 20.0828 9.08655 20.0828 9.08655L17.5572 9.10192C17.5572 9.10192 17.37 9.07697 17.2311 9.15808C17.0955 9.23762 17.0081 9.42301 17.0081 9.42301C17.0081 9.42301 16.6084 10.4629 16.0753 11.3473C14.9507 13.2135 14.501 13.312 14.3172 13.1961C13.8897 12.926 13.9964 12.1112 13.9964 11.5323C13.9964 9.72383 14.2771 8.96979 13.4498 8.7746C13.1753 8.70975 12.9732 8.66697 12.2712 8.66006C11.37 8.65093 10.6073 8.66274 10.1754 8.86952C9.88808 9.007 9.66644 9.31338 9.80143 9.33099C9.96835 9.35282 10.3464 9.43059 10.5468 9.69731C10.8057 10.0414 10.7965 10.8141 10.7965 10.8141C10.7965 10.8141 10.9452 12.943 10.4493 13.2075C10.1088 13.3888 9.64182 13.0185 8.6392 11.3255C8.12546 10.4583 7.73759 9.49967 7.73759 9.49967C7.73759 9.49967 7.6628 9.32051 7.52941 9.2247C7.36751 9.10861 7.14131 9.07162 7.14131 9.07162L4.74136 9.08699C4.74136 9.08699 4.38109 9.0968 4.24883 9.24988C4.13117 9.38603 4.23948 9.66768 4.23948 9.66768C4.23948 9.66768 6.1184 13.9633 8.24586 16.128C10.1966 18.1127 12.4118 17.9824 12.4118 17.9824Z" fill="white"/>
</g>
<defs>
<clipPath id="clip0_8_29">
<rect width="25.5833" height="25" fill="white" transform="translate(0.103333)"/>
</clipPath>
</defs>
</svg>
